Coordinates
version=1
nRows=14
nColumns=36
inDegrees=yes

Units are S.I. units (second, meters, Newtons, ...)
If the header above contains a line with 'inDegrees', this indicates whether rotational values are in degrees (yes) or radians (no).

endheader
time	pelvis_tilt	pelvis_list	pelvis_rotation	pelvis_tx	pelvis_ty	pelvis_tz	hip_flexion_r	hip_adduction_r	hip_rotation_r	knee_angle_r	knee_angle_r_beta	ankle_angle_r	subtalar_angle_r	mtp_angle_r	hip_flexion_l	hip_adduction_l	hip_rotation_l	knee_angle_l	knee_angle_l_beta	ankle_angle_l	subtalar_angle_l	mtp_angle_l	lumbar_extension	lumbar_bending	lumbar_rotation	arm_flex_r	arm_add_r	arm_rot_r	elbow_flex_r	pro_sup_r	arm_flex_l	arm_add_l	arm_rot_l	elbow_flex_l	pro_sup_l
      1.55000000	    -14.19450900	      2.19838601	     -3.13278441	      0.42193475	      0.71458168	      0.08009950	     60.22532058	    -14.02549550	     -0.56801098	     70.91044063	      1.23762066	     22.77455560	    -15.65962205	     -7.49999504	     59.07304076	    -11.47285273	     -4.27372840	     69.60150643	      1.21477545	     24.08737261	     -3.92374246	     -7.49999504	    -34.59457650	     -1.33601274	      1.46683049	     57.96980495	     -2.67546691	     78.32749930	    123.59258628	     92.69745169	     67.56692778	      5.21296490	     78.99275752	    123.74600648	     79.93926951
      1.56666670	    -14.55844479	      2.33890662	     -3.23133226	      0.42053334	      0.70516529	      0.07857862	     61.79116708	    -14.04601569	     -0.04189749	     72.39913933	      1.26360336	     23.07920151	    -15.73487151	     -7.49999546	     60.39872623	    -11.45345861	     -4.01589907	     70.98067124	      1.23884642	     24.69007123	     -3.97352297	     -7.49999546	    -35.53472890	     -1.26790958	      1.10076338	     59.16848108	     -2.04002406	     79.89240281	    122.88551470	     96.69453166	     67.70092058	      4.87789637	     78.50230701	    123.73806032	     84.14055441
      1.58333330	    -15.27010506	      2.43582165	     -3.18197797	      0.40776351	      0.69431315	      0.07386237	     64.12012796	    -14.17559860	      0.56668164	     73.69752258	      1.28626442	     23.11494007	    -15.74916103	     -7.49999552	     63.05628443	    -11.17879372	     -3.69854403	     73.06851604	      1.27528618	     24.65742945	     -4.69757905	     -7.49999552	    -36.30839148	     -1.18137155	      1.14037906	     60.52045654	     -2.22514775	     80.03488014	    123.04610262	     95.47390250	     69.15705463	      5.16805401	     78.35350244	    123.59723803	     82.93224521
      1.60000000	    -15.41266046	      2.43829146	     -2.95209995	      0.41639467	      0.69227648	      0.08429649	     64.84467388	    -13.97999982	      0.82619524	     74.71850366	      1.30408390	     23.80036773	    -16.04899982	     -7.49999550	     63.92493408	    -11.35711810	     -3.33606399	     74.02029285	      1.29189782	     24.50158433	     -4.86318769	     -7.49999550	    -37.47841924	     -1.32307602	      1.14543216	     60.59765205	     -2.27153116	     80.21239999	    122.97226876	     95.69430395	     69.35823182	      5.07375330	     78.40495412	    123.51271650	     83.10830261
      1.61666670	    -15.98538589	      2.57520613	     -2.94115059	      0.41040354	      0.68283555	      0.08164708	     66.52954880	    -13.90333893	      1.16733465	     76.10810265	      1.32833698	     24.43960759	    -16.17069739	     -7.49999544	     65.73666526	    -11.43452625	     -3.13113972	     75.64131249	      1.32018995	     24.69784297	     -5.12568405	     -7.49999544	    -38.24264909	     -1.45258212	      1.21752462	     61.75294511	     -2.27876796	     80.32099930	    122.83617825	     96.29393785	     70.47095506	      5.00500350	     78.30698144	    123.53155399	     83.53436210
      1.63333330	    -17.00980136	      2.86756184	     -3.06778832	      0.39316556	      0.67340126	      0.08430358	     69.54224548	    -13.58683167	      1.79918624	     77.54520938	      1.35341922	     24.71226214	    -15.91177260	     -7.49999553	     68.30697707	    -11.56065866	     -3.01507758	     76.83558987	      1.34103403	     24.65838232	     -5.52696763	     -7.49999553	    -38.60121143	     -1.96545794	      1.29399257	     62.89998092	     -2.17353234	     80.92810231	    122.51624839	     96.56156957	     71.55399972	      4.80082405	     78.36578512	    123.73778048	     83.96570730
      1.65000000	    -17.58313315	      2.95187688	     -3.28480457	      0.39357303	      0.66973647	      0.08023452	     71.33023533	    -13.30763986	      2.23080079	     78.40790556	      1.36847611	     24.73332866	    -15.87667838	     -7.49999556	     70.05613083	    -11.68583844	     -2.89764029	     77.85827488	      1.35888325	     24.36305194	     -5.89608844	     -7.49999556	    -39.45741333	     -2.00794535	      1.49251297	     64.43089838	     -2.14719759	     80.73491068	    122.34020408	     96.62665721	     72.78803477	      4.59634475	     77.83210101	    123.71608360	     84.08586252
      1.66666670	    -18.22313400	      3.08176787	     -3.35216785	      0.38187513	      0.66606682	      0.08127894	     73.27103660	    -13.05546926	      2.63065985	     78.90485130	      1.37714945	     24.20370835	    -15.62208883	     -7.49999560	     72.01446979	    -11.69167233	     -2.80950424	     78.76720722	      1.37474711	     23.96563871	     -6.13343702	     -7.49999560	    -40.49309365	     -2.11486751	      1.62067115	     66.02409758	     -2.10668329	     80.56157623	    122.46672483	     96.68665763	     74.12714891	      4.48747656	     77.36775974	    124.11781494	     84.26626458
      1.68333330	    -18.80845066	      3.14664565	     -3.29823985	      0.37502395	      0.65877735	      0.07943931	     75.13947995	    -12.95846033	      2.91604483	     79.49165702	      1.38739114	     23.58062538	    -15.55246813	     -7.49999577	     74.03108871	    -11.57222971	     -2.67188559	     79.64847502	      1.39012813	     23.17578051	     -6.79606965	     -7.49999577	    -41.49970745	     -2.03207044	      1.53080809	     67.50272565	     -2.37673135	     81.09414940	    122.79804990	     95.39370120	     75.58163230	      4.32789544	     77.10627410	    124.36621340	     84.23471072
      1.70000000	    -19.30422988	      3.15683667	     -3.40363173	      0.38096763	      0.65623341	      0.07763489	     76.18274886	    -12.88177798	      3.08572068	     79.83811791	      1.39343803	     23.15595059	    -15.39802890	     -7.49999580	     75.36476985	    -11.63071662	     -2.65134370	     80.42346084	      1.40365419	     22.72652359	     -7.11012448	     -7.49999580	    -42.39954300	     -2.00639079	      1.65324325	     68.78235414	     -2.48279162	     81.12695376	    122.75721976	     95.51371526	     76.20169660	      4.31315221	     76.88187160	    124.32932816	     84.42660100
      1.71666670	    -19.53509786	      3.10941232	     -3.50980000	      0.38183475	      0.64992911	      0.07663324	     76.94747370	    -12.90100258	      3.17238952	     80.46381888	      1.40435857	     22.95375296	    -15.34210268	     -7.49999584	     76.32831867	    -11.75696956	     -2.65012688	     81.24442711	      1.41798275	     22.58827512	     -7.57230213	     -7.49999584	    -43.30223079	     -1.83841531	      1.73918171	     69.30098323	     -2.89884422	     82.12168569	    122.97096662	     95.76184415	     76.52891467	      4.39940970	     76.80736943	    124.51071355	     84.76300956
      1.73333330	    -19.67660646	      3.13592315	     -3.55592611	      0.38581657	      0.64556491	      0.07432185	     77.24967770	    -13.13024058	      3.37525077	     80.99863243	      1.41369283	     22.99957456	    -15.39108470	     -7.49999585	     76.69134645	    -11.69426309	     -2.60116405	     81.94072648	      1.43013547	     22.84736150	     -7.76674928	     -7.49999585	    -44.04174836	     -1.70208559	      1.82577544	     69.36913159	     -3.05361932	     82.48659940	    122.91646944	     95.84261646	     76.31228364	      4.36231899	     76.93548467	    124.46677380	     84.88184300
      1.75000000	    -20.08708661	      3.12396715	     -3.81298933	      0.38885520	      0.64099235	      0.07292567	     77.80878960	    -13.30693018	      3.45882201	     81.68725516	      1.42571156	     23.59722107	    -14.85435657	     -7.49999638	     77.41714990	    -11.81017169	     -2.59685679	     82.99235388	      1.44848983	     23.61291109	     -7.85578959	     -7.49999638	    -44.30054012	     -1.46977766	      1.79231935	     69.40321387	     -3.05469880	     84.06730108	    123.07905556	     99.86498894	     75.44167142	      4.17638495	     76.79202386	    124.64148908	     91.72686911
      1.76666670	    -20.29990409	      3.31146488	     -4.09746941	      0.38271312	      0.63283006	      0.07527010	     78.99541637	    -13.28073490	      3.91382432	     82.94105690	      1.44759453	     23.73954023	    -14.53086857	     -7.49999644	     78.20603025	    -11.99525163	     -2.65100923	     83.91983728	      1.46467747	     24.27146237	     -8.02499210	     -7.49999644	    -44.54789179	     -1.80943327	      1.76203787	     69.50692250	     -3.12511975	     84.82068972	    123.36795299	     99.89036423	     75.40209232	      4.24081938	     76.85571884	    124.87917688	     91.91170186
